<?xml version="1.0" encoding="UTF-8" standalone="no"?>
<!-- Created with Inkscape (http://www.inkscape.org/) -->

<svg
   width="1280"
   height="640"
   viewBox="0 0 338.66666 169.33333"
   version="1.1"
   id="svg1"
   xml:space="preserve"
   xmlns="http://www.w3.org/2000/svg"
   xmlns:svg="http://www.w3.org/2000/svg"><defs
     id="defs1"><clipPath
       clipPathUnits="userSpaceOnUse"
       id="clipPath23"><path
         d="M 0,595.276 H 841.89 V 0 H 0 Z"
         transform="translate(-357.15271,-341.35991)"
         id="path23" /></clipPath><filter
       style="color-interpolation-filters:sRGB;"
       id="filter48"
       x="-0.082966271"
       y="-0.15135232"
       width="1.1659325"
       height="1.2233416"><feFlood
         result="flood"
         in="SourceGraphic"
         flood-opacity="0.243137"
         flood-color="rgb(0,0,0)"
         id="feFlood47" /><feGaussianBlur
         result="blur"
         in="SourceGraphic"
         stdDeviation="0.500000"
         id="feGaussianBlur47" /><feOffset
         result="offset"
         in="blur"
         dx="0.000000"
         dy="0.000000"
         id="feOffset47" /><feComposite
         result="comp1"
         operator="in"
         in="flood"
         in2="offset"
         id="feComposite47" /><feComposite
         result="comp2"
         operator="over"
         in="SourceGraphic"
         in2="comp1"
         id="feComposite48" /></filter><filter
       style="color-interpolation-filters:sRGB;"
       id="filter55"
       x="-0.033186509"
       y="-0.10815876"
       width="1.066373"
       height="1.1369545"><feFlood
         result="flood"
         in="SourceGraphic"
         flood-opacity="0.301961"
         flood-color="rgb(0,0,0)"
         id="feFlood54" /><feGaussianBlur
         result="blur"
         in="SourceGraphic"
         stdDeviation="0.200000"
         id="feGaussianBlur54" /><feOffset
         result="offset"
         in="blur"
         dx="0.000000"
         dy="0.000000"
         id="feOffset54" /><feComposite
         result="comp1"
         operator="in"
         in="flood"
         in2="offset"
         id="feComposite54" /><feComposite
         result="comp2"
         operator="over"
         in="SourceGraphic"
         in2="comp1"
         id="feComposite55" /></filter><filter
       style="color-interpolation-filters:sRGB;"
       id="filter59"
       x="-0.016593254"
       y="-0.09376091"
       width="1.0331865"
       height="1.1081588"><feFlood
         result="flood"
         in="SourceGraphic"
         flood-opacity="0.501961"
         flood-color="rgb(0,0,0)"
         id="feFlood58" /><feGaussianBlur
         result="blur"
         in="SourceGraphic"
         stdDeviation="0.100000"
         id="feGaussianBlur58" /><feOffset
         result="offset"
         in="blur"
         dx="0.000000"
         dy="0.000000"
         id="feOffset58" /><feComposite
         result="comp1"
         operator="in"
         in="flood"
         in2="offset"
         id="feComposite58" /><feComposite
         result="comp2"
         operator="over"
         in="SourceGraphic"
         in2="comp1"
         id="feComposite59" /></filter><clipPath
       clipPathUnits="userSpaceOnUse"
       id="clipPath5"><path
         style="fill:#00004b;fill-opacity:0.186722;stroke:none;stroke-width:1.37108;stroke-opacity:1"
         d="M 4.0571401,63.734095 10.139907,69.329374 31.580571,69.554505 31.864324,52.147348 17.835831,38.927831 9.9914673,41.90107 Z"
         id="path5" /></clipPath></defs><g
     id="layer1"><rect
       style="fill:#d4d7d7;stroke:#9a9a9b;stroke-width:0;fill-opacity:1"
       id="rect3"
       width="338.66666"
       height="169.33333"
       x="3.5527137e-15"
       y="3.5527137e-15" /><rect
       style="fill:#ffffff;fill-opacity:1;stroke:#9a9a9b;stroke-width:0"
       id="rect4"
       width="299.01443"
       height="121.45242"
       x="19.826117"
       y="23.940454" /><g
       id="g1"
       transform="matrix(2.1381993,0,0,2.1381993,-397.9123,-165.59332)"><rect
         style="fill:#f4b819;stroke:none;stroke-width:0;stroke-dasharray:none"
         id="rect1"
         width="33.866665"
         height="33.866665"
         x="204.83891"
         y="98.624176"
         ry="6.6145835" /><g
         id="g14"
         transform="matrix(0.13378102,0,0,0.13378102,514.73045,185.15414)" /><rect
         style="fill:#00004b;fill-opacity:0.188235;stroke:none;stroke-width:1.412"
         id="rect1-23-8"
         width="33.866665"
         height="33.866665"
         x="-2.9251533"
         y="35.215603"
         ry="6.6147499"
         clip-path="url(#clipPath5)"
         transform="translate(207.76407,63.408573)" /><g
         id="g16"
         transform="matrix(1.5099558,0,0,1.5099558,94.89413,6.600383)"><path
           d="m 87.099049,67.154259 c 0,-4.38294 -6.574413,-4.38294 -6.574413,0 v 3.944647"
           fill="none"
           stroke="currentColor"
           stroke-linecap="round"
           stroke-linejoin="round"
           stroke-width="32"
           id="path1-6-8"
           style="stroke:#f9f9f9;stroke-width:2.64583;stroke-dasharray:none;stroke-opacity:1" /><path
           id="path1-3-7"
           style="baseline-shift:baseline;display:inline;overflow:visible;opacity:1;vector-effect:none;fill:#f9f9f9;fill-opacity:1;stroke-linejoin:round;enable-background:accumulate;stop-color:#000000;stop-opacity:1"
           d="m 83.886719,71.527455 c 1.39384,0 2.569739,1.001169 2.746093,2.777344 0.01666,0.168244 0.153459,0.299238 0.322266,0.308593 0.39938,0.0208 0.854028,0.158139 1.183594,0.410157 0.329565,0.252017 0.548828,0.593112 0.548828,1.132812 0,0.563965 -0.190353,0.915588 -0.5,1.162109 -0.309647,0.246522 -0.768482,0.38086 -1.300781,0.38086 h -5.570313 c -1.255045,0 -2.228515,-0.829304 -2.228515,-2.056641 0,-0.646126 0.232003,-1.108568 0.605468,-1.449219 0.373466,-0.34065 0.902268,-0.553117 1.484375,-0.611328 0.137783,-0.01322 0.25411,-0.107972 0.294922,-0.240234 0.274066,-0.899764 1.095087,-1.814453 2.414063,-1.814453 z m -4.676965,-2.4243 c -1.445518,0 -2.629766,1.184248 -2.629766,2.629765 v 6.173522 c 0,1.445517 1.184248,2.629765 2.629766,2.629765 h 9.204177 c 1.445518,0 2.629766,-1.184248 2.629766,-2.629765 V 71.73292 c 0,-1.445517 -1.184248,-2.629765 -2.629766,-2.629765 z" /></g></g><text
       xml:space="preserve"
       style="font-weight:bold;font-size:29.0077px;font-family:'Yu Gothic';-inkscape-font-specification:'Yu Gothic Bold';text-align:start;letter-spacing:0px;writing-mode:lr-tb;direction:ltr;text-anchor:start;fill:#000000;stroke:#9a9a9b;stroke-width:0"
       x="120.72395"
       y="91.697426"
       id="text1"><tspan
         style="stroke-width:0"
         x="120.72395"
         y="91.697426"
         id="tspan2">kintone</tspan></text><text
       xml:space="preserve"
       style="font-weight:bold;font-size:28.173px;font-family:'Yu Gothic';-inkscape-font-specification:'Yu Gothic Bold';text-align:start;letter-spacing:0px;writing-mode:lr-tb;direction:ltr;text-anchor:start;fill:#000000;stroke:#9a9a9b;stroke-width:0"
       x="116.53664"
       y="116.73249"
       id="text3"><tspan
         id="tspan3"
         style="stroke-width:0"
         x="116.53664"
         y="116.73249">Authenticator</tspan></text></g></svg>
